<?xml version="1.0" encoding="utf-8"?>
<!-- Generator: Adobe Illustrator 21.1.0, SVG Export Plug-In . SVG Version: 6.00 Build 0)  -->
<svg version="1.1" id="Laag_1" xmlns="http://www.w3.org/2000/svg" xmlns:xlink="http://www.w3.org/1999/xlink" x="0px" y="0px"
	 viewBox="0 0 260 260" style="enable-background:new 0 0 260 260;" xml:space="preserve">
<style type="text/css">
	.st0{fill:url(#SVGID_1_);}
	.st1{fill:url(#SVGID_2_);}
</style>
<g>
	
		<linearGradient id="SVGID_1_" gradientUnits="userSpaceOnUse" x1="79.0725" y1="71.0754" x2="218.4568" y2="-96.7018" gradientTransform="matrix(1 0 0 -1 0 262)">
		<stop  offset="0" style="stop-color:#141414"/>
		<stop  offset="0.35" style="stop-color:#343434"/>
		<stop  offset="0.5" style="stop-color:#424242"/>
		<stop  offset="0.65" style="stop-color:#343434"/>
		<stop  offset="1" style="stop-color:#141414"/>
	</linearGradient>
	<path class="st0" d="M163.5,253.5c0.8,2.4,0.8,6.5,0.8,6.5H56.2c0,0,0-4.9,0.8-6.5c0.8-2.4,4.1-4.1,4.1-4.1l0,0
		c0-0.8,0-0.8,0.8-1.6l0,0c-4.9-5.7-7.3-14.6-6.5-23.6c0.8-8.9,7.3-17.9,11.4-25.2v-0.8c0-0.8,0,0,0-0.8c-1.6,0-4.1-2.4-3.2-4.9
		c0.8-4.9,4.1-5.7,4.9-5.7h0.8v-0.8v-0.8c4.1-9.8,8.1-18.7,12.2-27.6c26.8,26,71.5,27.6,71.5,27.6v0.8v0.8c0.8,0,0.8,0,0.8,0
		c0.8,0,4.1,0.8,4.9,4.1c0.8,2.4-2.4,4.9-3.3,4.9l-0.8,0.8c0,0.8,0.8,0.8,0.8,1.6c4.9,8.1,9.8,17.9,10.6,26.8
		c0.8,8.1-1.6,15.4-5.7,21.1c0,0.8,0,1.6,0,2.4C161.1,249.4,162.7,251.9,163.5,253.5L163.5,253.5z"/>
	
		<linearGradient id="SVGID_2_" gradientUnits="userSpaceOnUse" x1="154.9752" y1="124.5429" x2="48.5011" y2="343.9439" gradientTransform="matrix(1 0 0 -1 0 262)">
		<stop  offset="0" style="stop-color:#141414"/>
		<stop  offset="0.35" style="stop-color:#343434"/>
		<stop  offset="0.5" style="stop-color:#424242"/>
		<stop  offset="0.65" style="stop-color:#343434"/>
		<stop  offset="1" style="stop-color:#141414"/>
	</linearGradient>
	<path class="st1" d="M72.5,144.6c-25.2-36.6-7.3-65-7.3-65c-4.1-0.8-13.8,1.6-13.8,1.6C62.7,39.8,105,4.9,151.3,18.7
		C152.9,12.2,172.4,0,172.4,0c-2.4,1.6-4.9,21.9-4.9,21.9c1.6-4.1,10.6-16.3,10.6-16.3c-4.1,8.9,0,26.8,0,26.8
		c10.6,10.6,22.8,47.1,22.8,47.1l4.9,6.5c5.7,8.1,3.3,21.1-1.6,24.4c-21.1,11.4-23.6-9.7-23.6-9.7c-17.9-1.6-30.9-21.9-30.9-21.9
		c-23.6,12.2-10.6,46.3,0,60.1c13,17.1,3.3,44.7,3.3,44.7S96.9,181.2,72.5,144.6L72.5,144.6z"/>
</g>
</svg>
